<?xml version="1.0" encoding="utf-8"?>
<!-- Generator: Adobe Illustrator 21.0.2, SVG Export Plug-In . SVG Version: 6.00 Build 0)  -->
<svg version="1.1" id="Layer_2" xmlns="http://www.w3.org/2000/svg" xmlns:xlink="http://www.w3.org/1999/xlink" x="0px" y="0px"
	 viewBox="0 0 780.8 84.6" style="enable-background:new 0 0 780.8 84.6;" xml:space="preserve">
<style type="text/css">
	.st0{fill:#444444;}
</style>
<g>
	<path class="st0" d="M45.1,84.6c-13,0-23.8-4.1-32.3-12.3C4.3,64.2,0,54.1,0,42.3c0-11.8,4.3-21.9,12.8-30C21.3,4.1,32.1,0,45.1,0
		c8,0,15.3,1.8,21.9,5.4s11.8,8.5,15.4,14.7l-7.6,4.2c-2.7-5-6.7-9-12.1-11.9c-5.3-3-11.2-4.4-17.6-4.4c-10.7,0-19.5,3.3-26.3,9.9
		C12,24.5,8.6,32.6,8.6,42.3c0,9.7,3.4,17.8,10.2,24.4c6.8,6.6,15.6,9.9,26.3,9.9c6.4,0,12.3-1.5,17.6-4.4c5.3-3,9.3-6.9,12.1-11.9
		l7.6,4.1c-3.5,6.2-8.6,11.1-15.3,14.7C60.4,82.8,53.1,84.6,45.1,84.6z"/>
	<path class="st0" d="M194.8,72.3c-8.6,8.2-19.1,12.3-31.6,12.3c-12.5,0-23-4.1-31.6-12.3c-8.6-8.2-12.9-18.2-12.9-30
		c0-11.8,4.3-21.8,12.9-30C140.2,4.1,150.8,0,163.2,0c12.5,0,23,4.1,31.6,12.3c8.6,8.2,12.9,18.2,12.9,30
		C207.7,54.1,203.4,64.1,194.8,72.3z M137.6,66.7c6.9,6.7,15.4,10,25.6,10c10.2,0,18.7-3.3,25.6-10c6.9-6.7,10.3-14.8,10.3-24.4
		s-3.4-17.7-10.3-24.4c-6.9-6.7-15.4-10-25.6-10c-10.2,0-18.7,3.3-25.6,10c-6.9,6.7-10.3,14.8-10.3,24.4S130.7,60,137.6,66.7z"/>
	<path class="st0" d="M304.9,1.4h8.6v81.8h-7.4l-48-66.6v66.6h-8.6V1.4h7.5l47.8,66.4V1.4z"/>
	<path class="st0" d="M400.5,84.6c-13,0-23.8-4.1-32.3-12.3c-8.5-8.2-12.8-18.2-12.8-30c0-11.8,4.3-21.9,12.8-30
		C376.7,4.1,387.4,0,400.5,0c8,0,15.3,1.8,21.9,5.4s11.8,8.5,15.4,14.7l-7.6,4.2c-2.7-5-6.7-9-12.1-11.9c-5.3-3-11.2-4.4-17.6-4.4
		c-10.7,0-19.5,3.3-26.3,9.9c-6.8,6.6-10.2,14.8-10.2,24.4c0,9.7,3.4,17.8,10.2,24.4c6.8,6.6,15.6,9.9,26.3,9.9
		c6.4,0,12.3-1.5,17.6-4.4c5.3-3,9.3-6.9,12.1-11.9l7.6,4.1c-3.5,6.2-8.6,11.1-15.3,14.7C415.8,82.8,408.4,84.6,400.5,84.6z"/>
	<path class="st0" d="M550.2,72.3c-8.6,8.2-19.1,12.3-31.6,12.3c-12.5,0-23-4.1-31.6-12.3c-8.6-8.2-12.9-18.2-12.9-30
		c0-11.8,4.3-21.8,12.9-30C495.6,4.1,506.1,0,518.6,0c12.5,0,23,4.1,31.6,12.3c8.6,8.2,12.9,18.2,12.9,30
		C563.1,54.1,558.8,64.1,550.2,72.3z M493,66.7c6.9,6.7,15.4,10,25.6,10c10.2,0,18.7-3.3,25.6-10c6.9-6.7,10.3-14.8,10.3-24.4
		s-3.4-17.7-10.3-24.4c-6.9-6.7-15.4-10-25.6-10c-10.2,0-18.7,3.3-25.6,10c-6.9,6.7-10.3,14.8-10.3,24.4S486.1,60,493,66.7z"/>
	<path class="st0" d="M657.8,83.2l-20.1-32.7h-24.2v32.7h-8.6V1.4h34.4c7.1,0,13.2,2.4,18.3,7.2c5,4.8,7.6,10.6,7.6,17.4
		c0,5.5-1.7,10.5-5.2,14.8c-3.5,4.3-7.9,7.2-13.3,8.7l21,33.8H657.8z M613.5,9.1v33.7h25.8c4.8,0,8.8-1.7,12.2-5
		c3.4-3.3,5-7.3,5-11.9c0-4.7-1.7-8.6-5-11.9c-3.4-3.3-7.4-4.9-12.2-4.9H613.5z"/>
	<path class="st0" d="M740.2,1.4c11.7,0,21.4,4,29.1,11.9c7.7,7.9,11.5,17.6,11.5,29s-3.8,21.1-11.5,29
		c-7.7,7.9-17.4,11.9-29.1,11.9H707V1.4H740.2z M740.2,75.5c9.4,0,17.2-3.2,23.2-9.6c6-6.4,9-14.3,9-23.6s-3-17.2-9-23.6
		c-6-6.4-13.8-9.6-23.2-9.6h-24.6v66.4H740.2z"/>
</g>
</svg>
